<?xml version="1.0" encoding="UTF-8" standalone="no"?>
<!-- Created with Inkscape (http://www.inkscape.org/) -->

<svg
   width="512"
   height="512"
   viewBox="0 0 512 512"
   version="1.1"
   id="svg1"
   inkscape:version="1.3.2 (091e20ef0f, 2023-11-25)"
   sodipodi:docname="xyz-app_id.svg"
   xmlns:inkscape="http://www.inkscape.org/namespaces/inkscape"
   xmlns:sodipodi="http://sodipodi.sourceforge.net/DTD/sodipodi-0.dtd"
   xmlns:xlink="http://www.w3.org/1999/xlink"
   xmlns="http://www.w3.org/2000/svg"
   xmlns:svg="http://www.w3.org/2000/svg">
  <sodipodi:namedview
     id="namedview1"
     pagecolor="#ffffff"
     bordercolor="#000000"
     borderopacity="0.25"
     inkscape:showpageshadow="2"
     inkscape:pageopacity="0.0"
     inkscape:pagecheckerboard="0"
     inkscape:deskcolor="#d1d1d1"
     inkscape:document-units="px"
     showgrid="true"
     inkscape:zoom="0.5"
     inkscape:cx="113"
     inkscape:cy="335"
     inkscape:window-width="1366"
     inkscape:window-height="699"
     inkscape:window-x="0"
     inkscape:window-y="0"
     inkscape:window-maximized="1"
     inkscape:current-layer="layer1">
    <inkscape:grid
       id="grid1"
       units="px"
       originx="0"
       originy="0"
       spacingx="1"
       spacingy="1"
       empcolor="#0099e5"
       empopacity="0.30196078"
       color="#0099e5"
       opacity="0.14901961"
       empspacing="5"
       dotted="false"
       gridanglex="30"
       gridanglez="30"
       visible="true" />
  </sodipodi:namedview>
  <defs
     id="defs1">
    <pattern
       inkscape:collect="always"
       xlink:href="#pattern6795-4"
       id="pattern3-9"
       patternTransform="matrix(8,0,0,21.4,185,405)"
       x="19"
       y="13"
       preserveAspectRatio="none" />
    <pattern
       patternUnits="userSpaceOnUse"
       width="20"
       height="20"
       patternTransform="translate(185,405)"
       style="fill:#de290d"
       id="pattern6795-4"
       inkscape:label="Abstrait 2"
       inkscape:collect="always"
       inkscape:isstock="true">
      <path
         id="rect6713-7"
         style="opacity:1;stroke-width:4.8561;stroke-linecap:square;paint-order:stroke markers fill;stop-color:#000000"
         d="M 10,10 H 20 L 15,20 H 5 Z M 5,0 H 15 L 10,10 H 0 Z" />
    </pattern>
  </defs>
  <g
     inkscape:label="Calque 1"
     inkscape:groupmode="layer"
     id="layer1">
    <rect
       style="fill:#ffffff;fill-opacity:1;stroke:#db6e25;stroke-width:0;stroke-linecap:round;stroke-linejoin:round;stroke-dasharray:none;stroke-opacity:1"
       id="rect2"
       width="413.0192"
       height="416.35825"
       x="47.641499"
       y="43.958233"
       ry="133.24588" />
    <rect
       style="fill:url(#pattern3-9);fill-opacity:1;stroke:#db6e25;stroke-width:0;stroke-linecap:round;stroke-linejoin:round;stroke-dasharray:none;stroke-opacity:1"
       id="rect2-4"
       width="413.0192"
       height="416.35825"
       x="47.641499"
       y="43.958233"
       ry="133.24588" />
    <ellipse
       cy="190.60898"
       cx="375.42468"
       id="path162"
       style="fill:#26a269;stroke-width:1.0219"
       rx="61.361382"
       ry="61.265751" />
    <ellipse
       style="fill:#26a269;stroke-width:1.0219"
       id="path162-3"
       cx="133.4395"
       cy="191.6286"
       rx="61.361382"
       ry="61.265751" />
    <ellipse
       cy="191.00504"
       cx="130.40965"
       id="path179"
       style="fill:#000000;stroke-width:1.00133"
       rx="40.084709"
       ry="40.022243" />
    <ellipse
       style="fill:#000000;stroke-width:1.00133"
       id="path179-6"
       cx="376.0155"
       cy="192.17633"
       rx="40.084709"
       ry="40.022243" />
    <ellipse
       cy="254.01508"
       cx="251.06042"
       id="path158"
       style="fill:#26a269;stroke-width:0.681739"
       rx="136.45425"
       ry="136.24162" />
    <ellipse
       cy="224.95166"
       cx="193.66153"
       id="path196"
       style="fill:#ffffff;stroke-width:0.755614"
       rx="45.372227"
       ry="45.301525" />
    <ellipse
       style="fill:#ffffff;stroke-width:0.755614"
       id="path196-7"
       cx="295.98535"
       cy="224.90952"
       rx="45.372227"
       ry="45.301525" />
    <ellipse
       ry="30.201014"
       rx="75.620377"
       cy="268.67737"
       cx="247.70982"
       id="path160"
       style="fill:#000000;stroke-width:0.755614" />
    <ellipse
       cy="333.68875"
       cx="249.29652"
       id="path213"
       style="fill:#000000;stroke-width:0.755614"
       rx="30.248154"
       ry="30.201014" />
    <ellipse
       style="fill:#000000;stroke-width:0.755614"
       id="path213-5"
       cx="194.995"
       cy="223.74664"
       rx="30.248154"
       ry="30.201014" />
    <ellipse
       style="fill:#000000;stroke-width:0.755614"
       id="path213-3"
       cx="293.30145"
       cy="227.46277"
       rx="30.248154"
       ry="30.201014" />
    <rect
       y="145.41794"
       x="149.84219"
       height="11.766824"
       width="60.496307"
       id="rect238"
       style="fill:#000000;stroke-width:0.471648" />
    <rect
       style="fill:#000000;stroke-width:0.471648"
       id="rect238-5"
       width="60.496307"
       height="11.766824"
       x="278.39679"
       y="145.41794" />
    <g
       id="Face"
       transform="matrix(0.75620378,0,0,0.75502535,59.097754,51.481208)">
      <path
         style="fill:#33d17a;stroke-width:1.01015"
         d="M 227.26391,446.33812 C 176.14062,438.07981 132.86349,410.54437 104.37223,368.14721 86.002485,340.81166 75.899436,310.17178 74.389231,277.21671 l -0.668503,-14.58777 -6.00744,-2.41211 C 54.808895,255.03546 41.266652,244.40073 33.215898,233.126 23.927404,220.11787 18.969093,206.2886 17.961985,190.58116 c -2.4939,-38.89627 23.018909,-73.56587 61.250454,-83.23382 7.155006,-1.80935 10.555815,-2.06973 22.187381,-1.69877 18.19184,0.58017 26.09614,3.17691 44.6659,14.67375 2.58128,1.59811 2.83468,1.51536 10.6066,-3.46386 40.16956,-25.735337 88.86853,-34.498021 135.65367,-24.408939 19.77478,4.264373 43.49913,14.236819 60.19684,25.303529 l 8.08122,5.35597 -35.35534,0.50508 -35.35534,0.50508 v 8.08122 8.08122 l 40.15357,0.26413 40.15356,0.26413 v -8.59789 c 0,-8.23073 -0.0971,-8.59964 -2.27284,-8.63894 -2.08931,-0.0377 -1.98735,-0.28776 1.26269,-3.09611 8.44472,-7.29708 23.79361,-13.87977 37.22133,-15.96315 19.7285,-3.06099 39.93515,1.60296 57.31886,13.22989 40.21307,26.89614 46.89711,85.37521 13.83939,121.0815 -9.91022,10.70421 -26.07816,20.56119 -38.16075,23.26516 l -5.26917,1.17919 -0.63608,12.75225 c -2.3901,47.91678 -20.87511,88.61698 -55.37677,121.92828 -24.73842,23.88489 -54.42308,39.49008 -89.24394,46.91541 -13.42297,2.86236 -47.91346,3.68665 -61.61931,1.47265 z m 37.34255,-34.49937 c 10.29598,-3.61367 18.96489,-11.45932 23.60965,-21.36745 2.39947,-5.11853 2.68742,-6.92333 2.68742,-16.84444 0,-10.25028 -0.23036,-11.58154 -2.97149,-17.1726 -3.79494,-7.74049 -11.52271,-15.4695 -19.25187,-19.25495 -5.58885,-2.73721 -6.92636,-2.9684 -17.17259,-2.9684 -10.24623,0 -11.58375,0.23119 -17.1726,2.9684 -7.73489,3.78825 -15.4667,11.52006 -19.25495,19.25495 -2.73721,5.58885 -2.9684,6.92637 -2.9684,17.1726 0,9.94127 0.28515,11.72008 2.70727,16.8878 8.72198,18.60888 30.70173,28.02284 49.78756,21.32409 z m 11.43713,-85.23996 c 18.34689,-1.99406 39.9913,-7.68354 51.74108,-13.60074 7.05935,-3.5551 15.26622,-10.1331 18.3256,-14.6884 3.24817,-4.83639 4.49063,-11.37191 2.93674,-15.44755 -1.04537,-2.74184 -0.7675,-3.20864 5.73429,-9.63308 7.43532,-7.34685 12.17852,-14.59266 15.65798,-23.91946 1.90096,-5.09554 2.23553,-8.03336 2.23553,-19.62944 0,-11.59609 -0.33457,-14.53391 -2.23553,-19.62945 -7.64678,-20.49741 -24.54767,-35.13612 -45.69564,-39.5793 -30.86463,-6.48465 -62.93911,14.41868 -70.32401,45.83099 -1.55262,6.60425 -1.47938,21.75653 0.13792,28.53005 l 0.60297,2.52538 -9.74036,0.27504 -9.74036,0.27504 0.84282,-3.3055 c 0.46355,-1.81803 0.828,-8.98761 0.80988,-15.9324 -0.0274,-10.48034 -0.41173,-13.64562 -2.26107,-18.6193 -7.0315,-18.91076 -21.834,-32.78902 -41.14255,-38.57368 -9.43427,-2.82642 -25.16807,-2.40906 -34.68351,0.92001 -10.42344,3.64676 -17.5321,8.22828 -24.9736,16.09544 -25.99843,27.48555 -20.81568,70.58588 11.05349,91.922 3.69629,2.47463 4.07915,3.11832 3.79771,6.38497 -0.20709,2.40369 0.60958,5.51853 2.41366,9.20595 6.20108,12.67456 27.82051,23.24788 58.52117,28.62073 6.12986,1.07277 12.73619,2.12262 14.68073,2.333 8.0396,0.86978 42.19418,0.62993 51.30506,-0.3603 z m 167.83846,-93.13056 c 8.07309,-4.06495 17.68568,-13.49218 21.96057,-21.53712 4.84062,-9.10955 6.66604,-17.4967 6.14042,-28.21293 -0.98105,-20.00106 -11.54568,-36.09407 -29.55663,-45.02332 -15.32983,-7.60004 -31.68663,-7.59088 -47.04286,0.0263 -11.07455,5.49336 -10.991,5.16363 -3.56474,14.06897 18.49956,22.18407 33.41683,52.8247 38.10522,78.26951 l 1.2673,6.87787 3.09216,-0.59661 c 1.70068,-0.32814 6.02003,-2.07085 9.59856,-3.8727 z M 79.197403,224.88189 c 3.088351,-13.00548 10.921504,-32.70407 17.927268,-45.08298 6.105989,-10.78904 18.139279,-27.29807 23.978289,-32.89692 1.99676,-1.91464 3.63047,-4.07384 3.63047,-4.79823 0,-1.05924 7.41543,-1.31707 37.88072,-1.31707 h 37.88072 v -8.58629 -8.5863 h -40.4061 -40.4061 v 7.09701 7.09701 l -2.82271,-1.45968 c -8.73679,-4.51797 -25.167476,-5.93472 -36.026188,-3.10638 -23.242301,6.05385 -39.943002,27.8489 -39.943002,52.12715 0,18.11164 11.972482,37.99821 27.779195,46.14189 3.333504,1.71743 6.539655,3.14447 7.124781,3.17119 0.585126,0.0268 2.116322,-4.38345 3.402657,-9.8004 z"
         id="path273" />
    </g>
  </g>
</svg>
